<?xml version="1.0" encoding="UTF-8" standalone="no"?>
<!DOCTYPE svg PUBLIC "-//W3C//DTD SVG 1.1//EN"
 "http://www.w3.org/Graphics/SVG/1.1/DTD/svg11.dtd">
<!-- Generated by graphviz version 2.38.0 (20140413.2041)
 -->
<!-- Title: G Pages: 1 -->
<svg width="8017pt" height="1083pt"
 viewBox="0.00 0.00 8017.00 1083.20" xmlns="http://www.w3.org/2000/svg" xmlns:xlink="http://www.w3.org/1999/xlink">
<g id="graph0" class="graph" transform="scale(1 1) rotate(0) translate(4 1079.2)">
<title>G</title>
<polygon fill="white" stroke="none" points="-4,4 -4,-1079.2 8013,-1079.2 8013,4 -4,4"/>
<g id="clust1" class="cluster"><title>cluster_0</title>
<polygon fill="lightgray" stroke="lightgrey" points="8,-879.4 8,-976.4 760,-976.4 760,-879.4 8,-879.4"/>
<text text-anchor="middle" x="384.221" y="-945.4" font-family="Times,serif" font-size="30.00">/courses/courses/cscd01w20/gojiyaas/pdf.js/src/doc_helper.js</text>
</g>
<g id="clust2" class="cluster"><title>cluster_1</title>
<polygon fill="lightgray" stroke="lightgrey" points="768,-444.4 768,-979.2 2839,-979.2 2839,-444.4 768,-444.4"/>
<text text-anchor="middle" x="1135.88" y="-948.2" font-family="Times,serif" font-size="30.00">/courses/courses/cscd01w20/gojiyaas/pdf.js/src/interfaces.js</text>
</g>
<g id="clust8" class="cluster"><title>cluster_7</title>
<polygon fill="lightgray" stroke="lightgrey" points="6400,-427.6 6400,-588.6 7151,-588.6 7151,-427.6 6400,-427.6"/>
<text text-anchor="middle" x="6775.8" y="-557.6" font-family="Times,serif" font-size="30.00">/courses/courses/cscd01w20/gojiyaas/pdf.js/src/pdf.worker.js</text>
</g>
<g id="clust3" class="cluster"><title>cluster_2</title>
<polygon fill="lightgray" stroke="lightgrey" points="2847,-879.4 2847,-976.4 3714,-976.4 3714,-879.4 2847,-879.4"/>
<text text-anchor="middle" x="3280.69" y="-945.4" font-family="Times,serif" font-size="30.00">/courses/courses/cscd01w20/gojiyaas/pdf.js/src/license_header_libre.js</text>
</g>
<g id="clust4" class="cluster"><title>cluster_3</title>
<polygon fill="lightgray" stroke="lightgrey" points="3722,-864.2 3722,-991.6 4583,-991.6 4583,-864.2 3722,-864.2"/>
<text text-anchor="middle" x="4152.78" y="-960.6" font-family="Times,serif" font-size="30.00">/courses/courses/cscd01w20/gojiyaas/pdf.js/src/pdf.image_decoders.js</text>
</g>
<g id="clust5" class="cluster"><title>cluster_4</title>
<polygon fill="lightgray" stroke="lightgrey" points="4591,-879.4 4591,-976.4 5388,-976.4 5388,-879.4 4591,-879.4"/>
<text text-anchor="middle" x="4989.7" y="-945.4" font-family="Times,serif" font-size="30.00">/courses/courses/cscd01w20/gojiyaas/pdf.js/src/license_header.js</text>
</g>
<g id="clust6" class="cluster"><title>cluster_5</title>
<polygon fill="lightgray" stroke="lightgrey" points="5396,-8 5396,-1067.2 6345,-1067.2 6345,-8 5396,-8"/>
<text text-anchor="middle" x="5725.58" y="-1036.2" font-family="Times,serif" font-size="30.00">/courses/courses/cscd01w20/gojiyaas/pdf.js/src/pdf.js</text>
</g>
<g id="clust7" class="cluster"><title>cluster_6</title>
<polygon fill="lightgray" stroke="lightgrey" points="6379,-872.6 6379,-983.2 7199,-983.2 7199,-872.6 6379,-872.6"/>
<text text-anchor="middle" x="6789.37" y="-952.2" font-family="Times,serif" font-size="30.00">/courses/courses/cscd01w20/gojiyaas/pdf.js/src/pdf.worker.entry.js</text>
</g>
<g id="clust9" class="cluster"><title>cluster_8</title>
<polygon fill="lightgray" stroke="lightgrey" points="7207,-91.8 7207,-983.2 8001,-983.2 8001,-91.8 7207,-91.8"/>
<text text-anchor="middle" x="7604.04" y="-952.2" font-family="Times,serif" font-size="30.00">/courses/courses/cscd01w20/gojiyaas/pdf.js/src/worker_loader.js</text>
</g>
<!-- 0 -->
<g id="node1" class="node"><title>0</title>
<polygon fill="lightyellow" stroke="black" points="335.959,-887.9 335.959,-923.9 432.041,-923.9 432.041,-887.9 335.959,-887.9"/>
<text text-anchor="middle" x="384" y="-901.8" font-family="Times,serif" font-size="14.00">«GLOBAL»</text>
</g>
<!-- 1 -->
<g id="node2" class="node"><title>1</title>
<polygon fill="lightyellow" stroke="black" points="2675.96,-887.9 2675.96,-923.9 2772.04,-923.9 2772.04,-887.9 2675.96,-887.9"/>
<text text-anchor="middle" x="2724" y="-901.8" font-family="Times,serif" font-size="14.00">«GLOBAL»</text>
</g>
<!-- 9 -->
<g id="node3" class="node"><title>9</title>
<polygon fill="khaki" stroke="black" points="2521.26,-885.1 2521.26,-926.7 2610.74,-926.7 2610.74,-885.1 2521.26,-885.1"/>
<text text-anchor="middle" x="2566" y="-910.1" font-family="Times,serif" font-size="14.00">«CLASS»</text>
<text text-anchor="middle" x="2566" y="-893.3" font-family="Times,serif" font-size="14.00"> IPDFStream</text>
</g>
<!-- 10 -->
<g id="node4" class="node"><title>10</title>
<polygon fill="lightblue" stroke="black" points="2360.96,-465.3 2360.96,-506.9 2471.04,-506.9 2471.04,-465.3 2360.96,-465.3"/>
<text text-anchor="middle" x="2416" y="-490.3" font-family="Times,serif" font-size="14.00">«FUNCTION»</text>
<text text-anchor="middle" x="2416" y="-473.5" font-family="Times,serif" font-size="14.00"> getFullReader()</text>
</g>
<!-- 9&#45;&gt;10 -->
<g id="edge1" class="edge"><title>9&#45;&gt;10</title>
<path fill="none" stroke="black" d="M2537.21,-876.242C2516.71,-854.157 2490.2,-821.858 2475,-788.6 2429.78,-689.635 2419.16,-556.94 2416.72,-507.116"/>
<polygon fill="black" stroke="black" points="2537.31,-876.352 2544.34,-877.949 2545.57,-885.055 2538.54,-883.458 2537.31,-876.352"/>
</g>
<!-- 11 -->
<g id="node5" class="node"><title>11</title>
<polygon fill="lightblue" stroke="black" points="2477.92,-465.3 2477.92,-506.9 2654.08,-506.9 2654.08,-465.3 2477.92,-465.3"/>
<text text-anchor="middle" x="2566" y="-490.3" font-family="Times,serif" font-size="14.00">«FUNCTION»</text>
<text text-anchor="middle" x="2566" y="-473.5" font-family="Times,serif" font-size="14.00"> getRangeReader(begin,end)</text>
</g>
<!-- 9&#45;&gt;11 -->
<g id="edge2" class="edge"><title>9&#45;&gt;11</title>
<path fill="none" stroke="black" d="M2566,-872.809C2566,-790.563 2566,-574.012 2566,-507.092"/>
<polygon fill="black" stroke="black" points="2566,-873.03 2570,-879.03 2566,-885.03 2562,-879.03 2566,-873.03"/>
</g>
<!-- 12 -->
<g id="node6" class="node"><title>12</title>
<polygon fill="lightblue" stroke="black" points="2661.23,-465.3 2661.23,-506.9 2830.77,-506.9 2830.77,-465.3 2661.23,-465.3"/>
<text text-anchor="middle" x="2746" y="-490.3" font-family="Times,serif" font-size="14.00">«FUNCTION»</text>
<text text-anchor="middle" x="2746" y="-473.5" font-family="Times,serif" font-size="14.00"> cancelAllRequests(reason)</text>
</g>
<!-- 9&#45;&gt;12 -->
<g id="edge3" class="edge"><title>9&#45;&gt;12</title>
<path fill="none" stroke="black" d="M2593.89,-875.801C2613.93,-853.493 2640.26,-821.109 2657,-788.6 2707.97,-689.615 2734.22,-556.932 2742.78,-507.113"/>
<polygon fill="black" stroke="black" points="2593.83,-875.863 2592.73,-882.99 2585.73,-884.716 2586.83,-877.589 2593.83,-875.863"/>
</g>
<!-- 13 -->
<g id="node7" class="node"><title>13</title>
<polygon fill="khaki" stroke="black" points="1765.44,-885.1 1765.44,-926.7 1894.56,-926.7 1894.56,-885.1 1765.44,-885.1"/>
<text text-anchor="middle" x="1830" y="-910.1" font-family="Times,serif" font-size="14.00">«CLASS»</text>
<text text-anchor="middle" x="1830" y="-893.3" font-family="Times,serif" font-size="14.00"> IPDFStreamReader</text>
</g>
<!-- 14 -->
<g id="node8" class="node"><title>14</title>
<polygon fill="lightblue" stroke="black" points="1324.06,-452.9 1324.06,-519.3 1469.94,-519.3 1469.94,-452.9 1324.06,-452.9"/>
<text text-anchor="middle" x="1397" y="-502.7" font-family="Times,serif" font-size="14.00">«FUNCTION»</text>
<text text-anchor="middle" x="1397" y="-485.9" font-family="Times,serif" font-size="14.00"> constructor()</text>
<polyline fill="none" stroke="black" points="1324.06,-477.7 1469.94,-477.7 "/>
<text text-anchor="start" x="1332.06" y="-461.1" font-family="Times,serif" font-size="14.00">publiconProgress : null</text>
</g>
<!-- 13&#45;&gt;14 -->
<g id="edge4" class="edge"><title>13&#45;&gt;14</title>
<path fill="none" stroke="black" d="M1753.11,-900.768C1672.24,-892.224 1546.81,-866.361 1474,-788.6 1402.92,-712.688 1395.2,-580.462 1395.74,-519.537"/>
<polygon fill="black" stroke="black" points="1753.26,-900.782 1759.62,-897.386 1765.2,-901.952 1758.84,-905.348 1753.26,-900.782"/>
</g>
<!-- 15 -->
<g id="node9" class="node"><title>15</title>
<polygon fill="lightblue" stroke="black" points="1476.96,-465.3 1476.96,-506.9 1587.04,-506.9 1587.04,-465.3 1476.96,-465.3"/>
<text text-anchor="middle" x="1532" y="-490.3" font-family="Times,serif" font-size="14.00">«FUNCTION»</text>
<text text-anchor="middle" x="1532" y="-473.5" font-family="Times,serif" font-size="14.00"> headersReady()</text>
</g>
<!-- 13&#45;&gt;15 -->
<g id="edge5" class="edge"><title>13&#45;&gt;15</title>
<path fill="none" stroke="black" d="M1753.88,-887.179C1700.19,-870.676 1630.97,-840.569 1591,-788.6 1524.02,-701.504 1526.63,-559.35 1530.21,-507.144"/>
<polygon fill="black" stroke="black" points="1753.92,-887.192 1760.81,-885.058 1765.43,-890.596 1758.54,-892.729 1753.92,-887.192"/>
</g>
<!-- 16 -->
<g id="node10" class="node"><title>16</title>
<polygon fill="lightblue" stroke="black" points="1593.96,-465.3 1593.96,-506.9 1704.04,-506.9 1704.04,-465.3 1593.96,-465.3"/>
<text text-anchor="middle" x="1649" y="-490.3" font-family="Times,serif" font-size="14.00">«FUNCTION»</text>
<text text-anchor="middle" x="1649" y="-473.5" font-family="Times,serif" font-size="14.00"> filename()</text>
</g>
<!-- 13&#45;&gt;16 -->
<g id="edge6" class="edge"><title>13&#45;&gt;16</title>
<path fill="none" stroke="black" d="M1790.62,-877.757C1763.13,-856.663 1727.91,-824.94 1708,-788.6 1655.59,-692.946 1649.26,-557.719 1648.84,-507.183"/>
<polygon fill="black" stroke="black" points="1790.75,-877.851 1797.95,-878.24 1800.36,-885.036 1793.16,-884.647 1790.75,-877.851"/>
</g>
<!-- 17 -->
<g id="node11" class="node"><title>17</title>
<polygon fill="lightblue" stroke="black" points="1710.96,-465.3 1710.96,-506.9 1821.04,-506.9 1821.04,-465.3 1710.96,-465.3"/>
<text text-anchor="middle" x="1766" y="-490.3" font-family="Times,serif" font-size="14.00">«FUNCTION»</text>
<text text-anchor="middle" x="1766" y="-473.5" font-family="Times,serif" font-size="14.00"> contentLength()</text>
</g>
<!-- 13&#45;&gt;17 -->
<g id="edge7" class="edge"><title>13&#45;&gt;17</title>
<path fill="none" stroke="black" d="M1825.12,-873.062C1812.55,-791.009 1779.32,-574.081 1769.06,-507.092"/>
<polygon fill="black" stroke="black" points="1825.14,-873.168 1830,-878.493 1826.96,-885.03 1822.09,-879.705 1825.14,-873.168"/>
</g>
<!-- 18 -->
<g id="node12" class="node"><title>18</title>
<polygon fill="lightblue" stroke="black" points="1828.26,-465.3 1828.26,-506.9 1959.74,-506.9 1959.74,-465.3 1828.26,-465.3"/>
<text text-anchor="middle" x="1894" y="-490.3" font-family="Times,serif" font-size="14.00">«FUNCTION»</text>
<text text-anchor="middle" x="1894" y="-473.5" font-family="Times,serif" font-size="14.00"> isRangeSupported()</text>
</g>
<!-- 13&#45;&gt;18 -->
<g id="edge8" class="edge"><title>13&#45;&gt;18</title>
<path fill="none" stroke="black" d="M1834.88,-873.062C1847.45,-791.009 1880.68,-574.081 1890.94,-507.092"/>
<polygon fill="black" stroke="black" points="1834.86,-873.168 1837.91,-879.705 1833.04,-885.03 1830,-878.493 1834.86,-873.168"/>
</g>
<!-- 19 -->
<g id="node13" class="node"><title>19</title>
<polygon fill="lightblue" stroke="black" points="1966.38,-465.3 1966.38,-506.9 2119.62,-506.9 2119.62,-465.3 1966.38,-465.3"/>
<text text-anchor="middle" x="2043" y="-490.3" font-family="Times,serif" font-size="14.00">«FUNCTION»</text>
<text text-anchor="middle" x="2043" y="-473.5" font-family="Times,serif" font-size="14.00"> isStreamingSupported()</text>
</g>
<!-- 13&#45;&gt;19 -->
<g id="edge9" class="edge"><title>13&#45;&gt;19</title>
<path fill="none" stroke="black" d="M1871.74,-878.078C1901.13,-857.105 1939.16,-825.393 1962,-788.6 2020.6,-694.197 2037.29,-557.649 2041.61,-506.99"/>
<polygon fill="black" stroke="black" points="1871.59,-878.181 1868.96,-884.893 1861.75,-885.039 1864.38,-878.328 1871.59,-878.181"/>
</g>
<!-- 20 -->
<g id="node14" class="node"><title>20</title>
<polygon fill="lightblue" stroke="black" points="2126.96,-465.3 2126.96,-506.9 2237.04,-506.9 2237.04,-465.3 2126.96,-465.3"/>
<text text-anchor="middle" x="2182" y="-490.3" font-family="Times,serif" font-size="14.00">«FUNCTION»</text>
<text text-anchor="middle" x="2182" y="-473.5" font-family="Times,serif" font-size="14.00"> read()</text>
</g>
<!-- 13&#45;&gt;20 -->
<g id="edge10" class="edge"><title>13&#45;&gt;20</title>
<path fill="none" stroke="black" d="M1906.94,-895.083C1974.16,-882.323 2069.18,-853.402 2123,-788.6 2193.37,-703.872 2188.6,-559.657 2184.13,-507.055"/>
<polygon fill="black" stroke="black" points="1906.53,-895.155 1901.34,-900.155 1894.72,-897.282 1899.92,-892.282 1906.53,-895.155"/>
</g>
<!-- 21 -->
<g id="node15" class="node"><title>21</title>
<polygon fill="lightblue" stroke="black" points="2243.96,-465.3 2243.96,-506.9 2354.04,-506.9 2354.04,-465.3 2243.96,-465.3"/>
<text text-anchor="middle" x="2299" y="-490.3" font-family="Times,serif" font-size="14.00">«FUNCTION»</text>
<text text-anchor="middle" x="2299" y="-473.5" font-family="Times,serif" font-size="14.00"> cancel(reason)</text>
</g>
<!-- 13&#45;&gt;21 -->
<g id="edge11" class="edge"><title>13&#45;&gt;21</title>
<path fill="none" stroke="black" d="M1906.62,-892.92C2012.38,-874.815 2195.14,-837.357 2240,-788.6 2314.76,-707.353 2307.19,-560.37 2301.56,-507.079"/>
<polygon fill="black" stroke="black" points="1906.58,-892.927 1901.33,-897.871 1894.75,-894.927 1900,-889.983 1906.58,-892.927"/>
</g>
<!-- 22 -->
<g id="node16" class="node"><title>22</title>
<polygon fill="khaki" stroke="black" points="992.554,-885.1 992.554,-926.7 1157.45,-926.7 1157.45,-885.1 992.554,-885.1"/>
<text text-anchor="middle" x="1075" y="-910.1" font-family="Times,serif" font-size="14.00">«CLASS»</text>
<text text-anchor="middle" x="1075" y="-893.3" font-family="Times,serif" font-size="14.00"> IPDFStreamRangeReader</text>
</g>
<!-- 23 -->
<g id="node17" class="node"><title>23</title>
<polygon fill="lightblue" stroke="black" points="776.062,-452.9 776.062,-519.3 921.938,-519.3 921.938,-452.9 776.062,-452.9"/>
<text text-anchor="middle" x="849" y="-502.7" font-family="Times,serif" font-size="14.00">«FUNCTION»</text>
<text text-anchor="middle" x="849" y="-485.9" font-family="Times,serif" font-size="14.00"> constructor()</text>
<polyline fill="none" stroke="black" points="776.062,-477.7 921.938,-477.7 "/>
<text text-anchor="start" x="784.062" y="-461.1" font-family="Times,serif" font-size="14.00">publiconProgress : null</text>
</g>
<!-- 22&#45;&gt;23 -->
<g id="edge12" class="edge"><title>22&#45;&gt;23</title>
<path fill="none" stroke="black" d="M1026.65,-878.726C993.535,-858.369 951.196,-827.139 926,-788.6 869.83,-702.687 854.623,-578.222 850.515,-519.755"/>
<polygon fill="black" stroke="black" points="1026.75,-878.785 1033.96,-878.435 1037.05,-884.948 1029.85,-885.299 1026.75,-878.785"/>
</g>
<!-- 24 -->
<g id="node18" class="node"><title>24</title>
<polygon fill="lightblue" stroke="black" points="929.375,-465.3 929.375,-506.9 1082.62,-506.9 1082.62,-465.3 929.375,-465.3"/>
<text text-anchor="middle" x="1006" y="-490.3" font-family="Times,serif" font-size="14.00">«FUNCTION»</text>
<text text-anchor="middle" x="1006" y="-473.5" font-family="Times,serif" font-size="14.00"> isStreamingSupported()</text>
</g>
<!-- 22&#45;&gt;24 -->
<g id="edge13" class="edge"><title>22&#45;&gt;24</title>
<path fill="none" stroke="black" d="M1069.74,-873.062C1056.19,-791.009 1020.36,-574.081 1009.3,-507.092"/>
<polygon fill="black" stroke="black" points="1069.76,-873.19 1074.69,-878.458 1071.72,-885.03 1066.79,-879.762 1069.76,-873.19"/>
</g>
<!-- 25 -->
<g id="node19" class="node"><title>25</title>
<polygon fill="lightblue" stroke="black" points="1089.96,-465.3 1089.96,-506.9 1200.04,-506.9 1200.04,-465.3 1089.96,-465.3"/>
<text text-anchor="middle" x="1145" y="-490.3" font-family="Times,serif" font-size="14.00">«FUNCTION»</text>
<text text-anchor="middle" x="1145" y="-473.5" font-family="Times,serif" font-size="14.00"> read()</text>
</g>
<!-- 22&#45;&gt;25 -->
<g id="edge14" class="edge"><title>22&#45;&gt;25</title>
<path fill="none" stroke="black" d="M1080.33,-873.062C1094.08,-791.009 1130.43,-574.081 1141.65,-507.092"/>
<polygon fill="black" stroke="black" points="1080.31,-873.195 1083.27,-879.773 1078.33,-885.03 1075.38,-878.451 1080.31,-873.195"/>
</g>
<!-- 26 -->
<g id="node20" class="node"><title>26</title>
<polygon fill="lightblue" stroke="black" points="1206.96,-465.3 1206.96,-506.9 1317.04,-506.9 1317.04,-465.3 1206.96,-465.3"/>
<text text-anchor="middle" x="1262" y="-490.3" font-family="Times,serif" font-size="14.00">«FUNCTION»</text>
<text text-anchor="middle" x="1262" y="-473.5" font-family="Times,serif" font-size="14.00"> cancel(reason)</text>
</g>
<!-- 22&#45;&gt;26 -->
<g id="edge15" class="edge"><title>22&#45;&gt;26</title>
<path fill="none" stroke="black" d="M1116.49,-878.055C1145.32,-857.166 1182.16,-825.568 1203,-788.6 1256.56,-693.58 1262.2,-557.974 1262.3,-507.26"/>
<polygon fill="black" stroke="black" points="1116.48,-878.068 1113.88,-884.796 1106.67,-884.988 1109.27,-878.26 1116.48,-878.068"/>
</g>
<!-- 2 -->
<g id="node21" class="node"><title>2</title>
<polygon fill="lightyellow" stroke="black" points="3231.96,-887.9 3231.96,-923.9 3328.04,-923.9 3328.04,-887.9 3231.96,-887.9"/>
<text text-anchor="middle" x="3280" y="-901.8" font-family="Times,serif" font-size="14.00">«GLOBAL»</text>
</g>
<!-- 3 -->
<g id="node22" class="node"><title>3</title>
<polygon fill="lightyellow" stroke="black" points="4011.37,-872.7 4011.37,-939.1 4292.63,-939.1 4292.63,-872.7 4011.37,-872.7"/>
<text text-anchor="middle" x="4152" y="-922.5" font-family="Times,serif" font-size="14.00">«GLOBAL»</text>
<polyline fill="none" stroke="black" points="4011.37,-914.3 4292.63,-914.3 "/>
<text text-anchor="start" x="4019.37" y="-897.7" font-family="Times,serif" font-size="14.00">&#45;pdfjsBuild : variable = BUNDLEBUILD</text>
<text text-anchor="start" x="4019.37" y="-880.9" font-family="Times,serif" font-size="14.00">&#45;pdfjsVersion : variable = BUNDLEVERSION</text>
</g>
<!-- 4 -->
<g id="node23" class="node"><title>4</title>
<polygon fill="lightyellow" stroke="black" points="4940.96,-887.9 4940.96,-923.9 5037.04,-923.9 5037.04,-887.9 4940.96,-887.9"/>
<text text-anchor="middle" x="4989" y="-901.8" font-family="Times,serif" font-size="14.00">«GLOBAL»</text>
</g>
<!-- 5 -->
<g id="node24" class="node"><title>5</title>
<polygon fill="lightyellow" stroke="black" points="5925.02,-797.1 5925.02,-1014.7 6336.98,-1014.7 6336.98,-797.1 5925.02,-797.1"/>
<text text-anchor="middle" x="6131" y="-998.1" font-family="Times,serif" font-size="14.00">«GLOBAL»</text>
<polyline fill="none" stroke="black" points="5925.02,-989.9 6336.98,-989.9 "/>
<text text-anchor="start" x="5933.02" y="-973.3" font-family="Times,serif" font-size="14.00">&#45;PDFNodeStream : object</text>
<text text-anchor="start" x="5933.02" y="-956.5" font-family="Times,serif" font-size="14.00">&#45;pdfjsBuild : variable</text>
<text text-anchor="start" x="5933.02" y="-939.7" font-family="Times,serif" font-size="14.00">&#45;pdfjsDisplayAPI : variable = .displayapi.js</text>
<text text-anchor="start" x="5933.02" y="-922.9" font-family="Times,serif" font-size="14.00">&#45;pdfjsDisplayAPICompatibility : variable = .displayapicompatibility.js</text>
<text text-anchor="start" x="5933.02" y="-906.1" font-family="Times,serif" font-size="14.00">&#45;pdfjsDisplayAnnotationLayer : variable = .displayannotationlayer.js</text>
<text text-anchor="start" x="5933.02" y="-889.3" font-family="Times,serif" font-size="14.00">&#45;pdfjsDisplayDisplayUtils : variable = .displaydisplayutils.js</text>
<text text-anchor="start" x="5933.02" y="-872.5" font-family="Times,serif" font-size="14.00">&#45;pdfjsDisplaySVG : variable = .displaysvg.js</text>
<text text-anchor="start" x="5933.02" y="-855.7" font-family="Times,serif" font-size="14.00">&#45;pdfjsDisplayTextLayer : variable = .displaytextlayer.js</text>
<text text-anchor="start" x="5933.02" y="-838.9" font-family="Times,serif" font-size="14.00">&#45;pdfjsDisplayWorkerOptions : variable = .displayworkeroptions.js</text>
<text text-anchor="start" x="5933.02" y="-822.1" font-family="Times,serif" font-size="14.00">&#45;pdfjsSharedUtil : variable = .sharedutil.js</text>
<text text-anchor="start" x="5933.02" y="-805.3" font-family="Times,serif" font-size="14.00">&#45;pdfjsVersion : variable</text>
</g>
<!-- 27 -->
<g id="node25" class="node"><title>27</title>
<polygon fill="khaki" stroke="black" points="5785.51,-885.1 5785.51,-926.7 5918.49,-926.7 5918.49,-885.1 5785.51,-885.1"/>
<text text-anchor="middle" x="5852" y="-910.1" font-family="Times,serif" font-size="14.00">«BLOCK»</text>
<text text-anchor="middle" x="5852" y="-893.3" font-family="Times,serif" font-size="14.00"> VariableDeclaration</text>
</g>
<!-- 28 -->
<g id="node26" class="node"><title>28</title>
<polygon fill="khaki" stroke="black" points="6052.51,-465.3 6052.51,-506.9 6185.49,-506.9 6185.49,-465.3 6052.51,-465.3"/>
<text text-anchor="middle" x="6119" y="-490.3" font-family="Times,serif" font-size="14.00">«BLOCK»</text>
<text text-anchor="middle" x="6119" y="-473.5" font-family="Times,serif" font-size="14.00"> VariableDeclaration</text>
</g>
<!-- 27&#45;&gt;28 -->
<g id="edge16" class="edge"><title>27&#45;&gt;28</title>
<path fill="none" stroke="black" d="M5863.12,-873.411C5873.92,-847.936 5892.98,-813.599 5922,-796.6 5946.4,-782.306 6027.42,-806.878 6049,-788.6 6134.49,-716.184 6127.16,-561.732 6121.49,-506.908"/>
<polygon fill="black" stroke="black" points="5863.04,-873.597 5864.54,-880.652 5858.6,-884.745 5857.11,-877.69 5863.04,-873.597"/>
</g>
<!-- 30 -->
<g id="node28" class="node"><title>30</title>
<polygon fill="khaki" stroke="black" points="6192.51,-465.3 6192.51,-506.9 6325.49,-506.9 6325.49,-465.3 6192.51,-465.3"/>
<text text-anchor="middle" x="6259" y="-490.3" font-family="Times,serif" font-size="14.00">«BLOCK»</text>
<text text-anchor="middle" x="6259" y="-473.5" font-family="Times,serif" font-size="14.00"> VariableDeclaration</text>
</g>
<!-- 27&#45;&gt;30 -->
<g id="edge18" class="edge"><title>27&#45;&gt;30</title>
<path fill="none" stroke="black" d="M5862.79,-873.606C5873.47,-847.935 5892.54,-813.214 5922,-796.6 5947.85,-782.021 6166.04,-807.408 6189,-788.6 6275.67,-717.602 6267.6,-562.258 6261.62,-507.055"/>
<polygon fill="black" stroke="black" points="5862.7,-873.835 5864.25,-880.879 5858.34,-885.014 5856.79,-877.971 5862.7,-873.835"/>
</g>
<!-- 29 -->
<g id="node27" class="node"><title>29</title>
<polygon fill="lightblue" stroke="black" points="5773.74,-71.1 5773.74,-171.1 5966.26,-171.1 5966.26,-71.1 5773.74,-71.1"/>
<text text-anchor="middle" x="5870" y="-154.5" font-family="Times,serif" font-size="14.00">«FUNCTION»</text>
<text text-anchor="middle" x="5870" y="-137.7" font-family="Times,serif" font-size="14.00"> function</text>
<polyline fill="none" stroke="black" points="5773.74,-129.5 5966.26,-129.5 "/>
<text text-anchor="start" x="5781.74" y="-112.9" font-family="Times,serif" font-size="14.00">&#45;PDFFetchStream = undefined</text>
<text text-anchor="start" x="5781.74" y="-96.1" font-family="Times,serif" font-size="14.00">&#45;PDFNetworkStream : object</text>
<text text-anchor="start" x="5781.74" y="-79.3" font-family="Times,serif" font-size="14.00">publicPDFFetchStream : object</text>
</g>
<!-- 28&#45;&gt;29 -->
<g id="edge17" class="edge"><title>28&#45;&gt;29</title>
<path fill="none" stroke="black" d="M6122.43,-452.914C6127.1,-390.375 6127.33,-252.546 6049,-183.6 6035.76,-171.941 5986.88,-180.749 5970,-175.6 5965.76,-174.307 5961.5,-172.829 5957.24,-171.207"/>
<polygon fill="black" stroke="black" points="6122.41,-453.109 6125.89,-459.427 6121.39,-465.065 6117.91,-458.746 6122.41,-453.109"/>
</g>
<!-- 31 -->
<g id="node29" class="node"><title>31</title>
<polygon fill="khaki" stroke="black" points="5973.71,-100.3 5973.71,-141.9 6122.29,-141.9 6122.29,-100.3 5973.71,-100.3"/>
<text text-anchor="middle" x="6048" y="-125.3" font-family="Times,serif" font-size="14.00">«BLOCK»</text>
<text text-anchor="middle" x="6048" y="-108.5" font-family="Times,serif" font-size="14.00"> AssignmentExpression</text>
</g>
<!-- 30&#45;&gt;31 -->
<g id="edge19" class="edge"><title>30&#45;&gt;31</title>
<path fill="none" stroke="black" d="M6262.27,-453.087C6266.68,-390.853 6266.44,-253.535 6189,-183.6 6178.53,-174.142 6139.19,-180.621 6126,-175.6 6105.59,-167.83 6085.33,-153.693 6070.58,-141.902"/>
<polygon fill="black" stroke="black" points="6262.26,-453.216 6265.76,-459.521 6261.29,-465.177 6257.79,-458.872 6262.26,-453.216"/>
</g>
<!-- 32 -->
<g id="node30" class="node"><title>32</title>
<polygon fill="lightblue" stroke="black" points="6129.36,-67.1 6129.36,-175.1 6336.64,-175.1 6336.64,-67.1 6129.36,-67.1"/>
<text text-anchor="middle" x="6233" y="-158.5" font-family="Times,serif" font-size="14.00">«FUNCTION»</text>
<text text-anchor="middle" x="6233" y="-141.7" font-family="Times,serif" font-size="14.00"> function</text>
<polyline fill="none" stroke="black" points="6129.36,-133.5 6336.64,-133.5 "/>
<text text-anchor="start" x="6137.36" y="-116.9" font-family="Times,serif" font-size="14.00">&#45;PDFFetchStream = undefined</text>
<text text-anchor="start" x="6137.36" y="-100.1" font-family="Times,serif" font-size="14.00">&#45;PDFNetworkStream : object</text>
<polyline fill="none" stroke="black" points="6129.36,-91.9 6336.64,-91.9 "/>
<text text-anchor="start" x="6137.36" y="-75.3" font-family="Times,serif" font-size="14.00">&#45;isChromeWithFetchCredentials()</text>
</g>
<!-- 30&#45;&gt;32 -->
<g id="edge20" class="edge"><title>30&#45;&gt;32</title>
<path fill="none" stroke="black" d="M6256.69,-452.916C6252.21,-390.332 6242.28,-251.686 6236.81,-175.248"/>
<polygon fill="black" stroke="black" points="6256.71,-453.097 6261.13,-458.796 6257.57,-465.066 6253.15,-459.368 6256.71,-453.097"/>
</g>
<!-- 33 -->
<g id="node31" class="node"><title>33</title>
<polygon fill="khaki" stroke="black" points="6176.2,-16.5 6176.2,-58.1 6289.8,-58.1 6289.8,-16.5 6176.2,-16.5"/>
<text text-anchor="middle" x="6233" y="-41.5" font-family="Times,serif" font-size="14.00">«BLOCK»</text>
<text text-anchor="middle" x="6233" y="-24.7" font-family="Times,serif" font-size="14.00"> ReturnStatement</text>
</g>
<!-- 32&#45;&gt;33 -->
<g id="edge21" class="edge"><title>32&#45;&gt;33</title>
<path fill="none" stroke="black" d="M6233,-58.3946C6233,-58.3076 6233,-58.2208 6233,-58.1341"/>
<polygon fill="black" stroke="black" points="6233,-54.9097 6237,-60.9097 6233,-66.9097 6229,-60.9096 6233,-54.9097"/>
</g>
<!-- 34 -->
<g id="node32" class="node"><title>34</title>
<polygon fill="khaki" stroke="black" points="5624.51,-885.1 5624.51,-926.7 5757.49,-926.7 5757.49,-885.1 5624.51,-885.1"/>
<text text-anchor="middle" x="5691" y="-910.1" font-family="Times,serif" font-size="14.00">«BLOCK»</text>
<text text-anchor="middle" x="5691" y="-893.3" font-family="Times,serif" font-size="14.00"> VariableDeclaration</text>
</g>
<!-- 35 -->
<g id="node33" class="node"><title>35</title>
<polygon fill="lightblue" stroke="black" points="5403.94,-444.5 5403.94,-527.7 5610.06,-527.7 5610.06,-444.5 5403.94,-444.5"/>
<text text-anchor="middle" x="5507" y="-511.1" font-family="Times,serif" font-size="14.00">«FUNCTION»</text>
<text text-anchor="middle" x="5507" y="-494.3" font-family="Times,serif" font-size="14.00"> isChromeWithFetchCredentials()</text>
<polyline fill="none" stroke="black" points="5403.94,-486.1 5610.06,-486.1 "/>
<text text-anchor="start" x="5411.94" y="-469.5" font-family="Times,serif" font-size="14.00">&#45;window.[?] : number = 123</text>
<text text-anchor="start" x="5411.94" y="-452.7" font-family="Times,serif" font-size="14.00">publicPDFFetchStream : object</text>
</g>
<!-- 34&#45;&gt;35 -->
<g id="edge22" class="edge"><title>34&#45;&gt;35</title>
<path fill="none" stroke="black" d="M5668.31,-875.076C5651.7,-852.28 5629.47,-819.602 5614,-788.6 5569.48,-699.395 5534.79,-587.056 5518.03,-527.882"/>
<polygon fill="black" stroke="black" points="5668.37,-875.158 5675.15,-877.61 5675.49,-884.813 5668.71,-882.361 5668.37,-875.158"/>
</g>
<!-- 39 -->
<g id="node37" class="node"><title>39</title>
<polygon fill="khaki" stroke="black" points="5616.71,-465.3 5616.71,-506.9 5765.29,-506.9 5765.29,-465.3 5616.71,-465.3"/>
<text text-anchor="middle" x="5691" y="-490.3" font-family="Times,serif" font-size="14.00">«BLOCK»</text>
<text text-anchor="middle" x="5691" y="-473.5" font-family="Times,serif" font-size="14.00"> AssignmentExpression</text>
</g>
<!-- 34&#45;&gt;39 -->
<g id="edge26" class="edge"><title>34&#45;&gt;39</title>
<path fill="none" stroke="black" d="M5691,-872.809C5691,-790.563 5691,-574.012 5691,-507.092"/>
<polygon fill="black" stroke="black" points="5691,-873.03 5695,-879.03 5691,-885.03 5687,-879.03 5691,-873.03"/>
</g>
<!-- 40 -->
<g id="node38" class="node"><title>40</title>
<polygon fill="lightblue" stroke="black" points="5772.31,-184.1 5772.31,-788.1 6045.69,-788.1 6045.69,-184.1 5772.31,-184.1"/>
<text text-anchor="middle" x="5909" y="-771.5" font-family="Times,serif" font-size="14.00">«FUNCTION»</text>
<text text-anchor="middle" x="5909" y="-754.7" font-family="Times,serif" font-size="14.00"> function</text>
<polyline fill="none" stroke="black" points="5772.31,-746.5 6045.69,-746.5 "/>
<text text-anchor="start" x="5780.31" y="-729.9" font-family="Times,serif" font-size="14.00">publicAnnotationLayer : object</text>
<text text-anchor="start" x="5780.31" y="-713.1" font-family="Times,serif" font-size="14.00">publicCMapCompressionType : object</text>
<text text-anchor="start" x="5780.31" y="-696.3" font-family="Times,serif" font-size="14.00">publicGlobalWorkerOptions : object</text>
<text text-anchor="start" x="5780.31" y="-679.5" font-family="Times,serif" font-size="14.00">publicInvalidPDFException : object</text>
<text text-anchor="start" x="5780.31" y="-662.7" font-family="Times,serif" font-size="14.00">publicLinkTarget : object</text>
<text text-anchor="start" x="5780.31" y="-645.9" font-family="Times,serif" font-size="14.00">publicLoopbackPort : object</text>
<text text-anchor="start" x="5780.31" y="-629.1" font-family="Times,serif" font-size="14.00">publicMissingPDFException : object</text>
<text text-anchor="start" x="5780.31" y="-612.3" font-family="Times,serif" font-size="14.00">publicNativeImageDecoding : object</text>
<text text-anchor="start" x="5780.31" y="-595.5" font-family="Times,serif" font-size="14.00">publicOPS : object</text>
<text text-anchor="start" x="5780.31" y="-578.7" font-family="Times,serif" font-size="14.00">publicPDFDataRangeTransport : object</text>
<text text-anchor="start" x="5780.31" y="-561.9" font-family="Times,serif" font-size="14.00">publicPDFDateString : object</text>
<text text-anchor="start" x="5780.31" y="-545.1" font-family="Times,serif" font-size="14.00">publicPDFWorker : object</text>
<text text-anchor="start" x="5780.31" y="-528.3" font-family="Times,serif" font-size="14.00">publicPasswordResponses : object</text>
<text text-anchor="start" x="5780.31" y="-511.5" font-family="Times,serif" font-size="14.00">publicPermissionFlag : object</text>
<text text-anchor="start" x="5780.31" y="-494.7" font-family="Times,serif" font-size="14.00">publicRenderingCancelledException : object</text>
<text text-anchor="start" x="5780.31" y="-477.9" font-family="Times,serif" font-size="14.00">publicSVGGraphics : object</text>
<text text-anchor="start" x="5780.31" y="-461.1" font-family="Times,serif" font-size="14.00">publicUNSUPPORTEDFEATURES : object</text>
<text text-anchor="start" x="5780.31" y="-444.3" font-family="Times,serif" font-size="14.00">publicUnexpectedResponseException : object</text>
<text text-anchor="start" x="5780.31" y="-427.5" font-family="Times,serif" font-size="14.00">publicUtil : object</text>
<text text-anchor="start" x="5780.31" y="-410.7" font-family="Times,serif" font-size="14.00">publicVerbosityLevel : object</text>
<text text-anchor="start" x="5780.31" y="-393.9" font-family="Times,serif" font-size="14.00">publicaddLinkAttributes : object</text>
<text text-anchor="start" x="5780.31" y="-377.1" font-family="Times,serif" font-size="14.00">publicapiCompatibilityParams : object</text>
<text text-anchor="start" x="5780.31" y="-360.3" font-family="Times,serif" font-size="14.00">publicbuild : object</text>
<text text-anchor="start" x="5780.31" y="-343.5" font-family="Times,serif" font-size="14.00">publiccreateObjectURL : object</text>
<text text-anchor="start" x="5780.31" y="-326.7" font-family="Times,serif" font-size="14.00">publiccreatePromiseCapability : object</text>
<text text-anchor="start" x="5780.31" y="-309.9" font-family="Times,serif" font-size="14.00">publiccreateValidAbsoluteUrl : object</text>
<text text-anchor="start" x="5780.31" y="-293.1" font-family="Times,serif" font-size="14.00">publicgetDocument : object</text>
<text text-anchor="start" x="5780.31" y="-276.3" font-family="Times,serif" font-size="14.00">publicgetFilenameFromUrl : object</text>
<text text-anchor="start" x="5780.31" y="-259.5" font-family="Times,serif" font-size="14.00">publicloadScript : object</text>
<text text-anchor="start" x="5780.31" y="-242.7" font-family="Times,serif" font-size="14.00">publicremoveNullCharacters : object</text>
<text text-anchor="start" x="5780.31" y="-225.9" font-family="Times,serif" font-size="14.00">publicrenderTextLayer : object</text>
<text text-anchor="start" x="5780.31" y="-209.1" font-family="Times,serif" font-size="14.00">publicshadow : object</text>
<text text-anchor="start" x="5780.31" y="-192.3" font-family="Times,serif" font-size="14.00">publicversion : object</text>
</g>
<!-- 34&#45;&gt;40 -->
<g id="edge27" class="edge"><title>34&#45;&gt;40</title>
<path fill="none" stroke="black" d="M5712.54,-875.038C5728.73,-851.988 5750.95,-819.003 5768,-788.6 5769.41,-786.08 5770.83,-783.543 5772.24,-780.992"/>
<polygon fill="black" stroke="black" points="5712.5,-875.09 5712.3,-882.299 5705.57,-884.884 5705.77,-877.676 5712.5,-875.09"/>
</g>
<!-- 36 -->
<g id="node34" class="node"><title>36</title>
<polygon fill="khaki" stroke="black" points="5403.71,-100.3 5403.71,-141.9 5552.29,-141.9 5552.29,-100.3 5403.71,-100.3"/>
<text text-anchor="middle" x="5478" y="-125.3" font-family="Times,serif" font-size="14.00">«BLOCK»</text>
<text text-anchor="middle" x="5478" y="-108.5" font-family="Times,serif" font-size="14.00"> AssignmentExpression</text>
</g>
<!-- 35&#45;&gt;36 -->
<g id="edge23" class="edge"><title>35&#45;&gt;36</title>
<path fill="none" stroke="black" d="M5502.77,-432.144C5496.23,-350.258 5483.96,-196.652 5479.59,-142.016"/>
<polygon fill="black" stroke="black" points="5502.77,-432.203 5507.24,-437.865 5503.73,-444.165 5499.26,-438.503 5502.77,-432.203"/>
</g>
<!-- 37 -->
<g id="node35" class="node"><title>37</title>
<polygon fill="khaki" stroke="black" points="5559.62,-100.3 5559.62,-141.9 5646.38,-141.9 5646.38,-100.3 5559.62,-100.3"/>
<text text-anchor="middle" x="5603" y="-125.3" font-family="Times,serif" font-size="14.00">«CATCH»</text>
<text text-anchor="middle" x="5603" y="-108.5" font-family="Times,serif" font-size="14.00"> catch</text>
</g>
<!-- 35&#45;&gt;37 -->
<g id="edge24" class="edge"><title>35&#45;&gt;37</title>
<path fill="none" stroke="black" d="M5520.94,-432.396C5542.58,-350.574 5583.27,-196.708 5597.73,-142.016"/>
<polygon fill="black" stroke="black" points="5520.89,-432.564 5523.23,-439.387 5517.83,-444.165 5515.49,-437.342 5520.89,-432.564"/>
</g>
<!-- 38 -->
<g id="node36" class="node"><title>38</title>
<polygon fill="khaki" stroke="black" points="5546.2,-16.5 5546.2,-58.1 5659.8,-58.1 5659.8,-16.5 5546.2,-16.5"/>
<text text-anchor="middle" x="5603" y="-41.5" font-family="Times,serif" font-size="14.00">«BLOCK»</text>
<text text-anchor="middle" x="5603" y="-24.7" font-family="Times,serif" font-size="14.00"> ReturnStatement</text>
</g>
<!-- 37&#45;&gt;38 -->
<g id="edge25" class="edge"><title>37&#45;&gt;38</title>
<path fill="none" stroke="black" d="M5603,-88.1269C5603,-78.0407 5603,-67.193 5603,-58.2027"/>
<polygon fill="black" stroke="black" points="5603,-88.2985 5607,-94.2985 5603,-100.299 5599,-94.2985 5603,-88.2985"/>
</g>
<!-- 41 -->
<g id="node39" class="node"><title>41</title>
<polygon fill="khaki" stroke="black" points="5653.2,-100.3 5653.2,-141.9 5766.8,-141.9 5766.8,-100.3 5653.2,-100.3"/>
<text text-anchor="middle" x="5710" y="-125.3" font-family="Times,serif" font-size="14.00">«BLOCK»</text>
<text text-anchor="middle" x="5710" y="-108.5" font-family="Times,serif" font-size="14.00"> ReturnStatement</text>
</g>
<!-- 40&#45;&gt;41 -->
<g id="edge28" class="edge"><title>40&#45;&gt;41</title>
<path fill="none" stroke="black" d="M5765.06,-179.746C5753.14,-163.595 5741.7,-151.537 5731.92,-142.01"/>
<polygon fill="black" stroke="black" points="5765.19,-179.941 5771.92,-182.532 5772.12,-189.74 5765.39,-187.149 5765.19,-179.941"/>
</g>
<!-- 6 -->
<g id="node40" class="node"><title>6</title>
<polygon fill="lightyellow" stroke="black" points="6685.57,-881.1 6685.57,-930.7 6864.43,-930.7 6864.43,-881.1 6685.57,-881.1"/>
<text text-anchor="middle" x="6775" y="-914.1" font-family="Times,serif" font-size="14.00">«GLOBAL»</text>
<polyline fill="none" stroke="black" points="6685.57,-905.9 6864.43,-905.9 "/>
<text text-anchor="start" x="6693.57" y="-889.3" font-family="Times,serif" font-size="14.00">&#45;pdfjsWorker(.pdf.worker.js)</text>
</g>
<!-- 7 -->
<g id="node41" class="node"><title>7</title>
<polygon fill="lightyellow" stroke="black" points="6634.37,-436.1 6634.37,-536.1 6915.63,-536.1 6915.63,-436.1 6634.37,-436.1"/>
<text text-anchor="middle" x="6775" y="-519.5" font-family="Times,serif" font-size="14.00">«GLOBAL»</text>
<polyline fill="none" stroke="black" points="6634.37,-511.3 6915.63,-511.3 "/>
<text text-anchor="start" x="6642.37" y="-494.7" font-family="Times,serif" font-size="14.00">&#45;pdfjsBuild : variable = BUNDLEBUILD</text>
<text text-anchor="start" x="6642.37" y="-477.9" font-family="Times,serif" font-size="14.00">&#45;pdfjsCoreWorker : variable = .coreworker.js</text>
<text text-anchor="start" x="6642.37" y="-461.1" font-family="Times,serif" font-size="14.00">&#45;pdfjsVersion : variable = BUNDLEVERSION</text>
<text text-anchor="start" x="6642.37" y="-444.3" font-family="Times,serif" font-size="14.00">publicWorkerMessageHandler : object</text>
</g>
<!-- 6&#45;&gt;7 -->
<g id="edge29" class="edge"><title>6&#45;&gt;7</title>
<path fill="none" stroke="black" d="M6775,-872.901C6775,-815.082 6775,-690.671 6775,-598.683"/>
<polygon fill="black" stroke="black" points="6778.5,-598.575 6775,-588.575 6771.5,-598.575 6778.5,-598.575"/>
</g>
<!-- 8 -->
<g id="node42" class="node"><title>8</title>
<polygon fill="lightyellow" stroke="black" points="7811.05,-881.1 7811.05,-930.7 7940.95,-930.7 7940.95,-881.1 7811.05,-881.1"/>
<text text-anchor="middle" x="7876" y="-914.1" font-family="Times,serif" font-size="14.00">«GLOBAL»</text>
<polyline fill="none" stroke="black" points="7811.05,-905.9 7940.95,-905.9 "/>
<text text-anchor="start" x="7819.05" y="-889.3" font-family="Times,serif" font-size="14.00">&#45;self.importScripts()</text>
</g>
<!-- 42 -->
<g id="node43" class="node"><title>42</title>
<polygon fill="lightblue" stroke="black" points="7641.96,-885.1 7641.96,-926.7 7752.04,-926.7 7752.04,-885.1 7641.96,-885.1"/>
<text text-anchor="middle" x="7697" y="-910.1" font-family="Times,serif" font-size="14.00">«FUNCTION»</text>
<text text-anchor="middle" x="7697" y="-893.3" font-family="Times,serif" font-size="14.00"> (importScripts)</text>
</g>
<!-- 43 -->
<g id="node44" class="node"><title>43</title>
<polygon fill="lightblue" stroke="black" points="7641.96,-465.3 7641.96,-506.9 7752.04,-506.9 7752.04,-465.3 7641.96,-465.3"/>
<text text-anchor="middle" x="7697" y="-490.3" font-family="Times,serif" font-size="14.00">«FUNCTION»</text>
<text text-anchor="middle" x="7697" y="-473.5" font-family="Times,serif" font-size="14.00"> ()</text>
</g>
<!-- 42&#45;&gt;43 -->
<g id="edge30" class="edge"><title>42&#45;&gt;43</title>
<path fill="none" stroke="black" d="M7697,-872.809C7697,-790.563 7697,-574.012 7697,-507.092"/>
<polygon fill="black" stroke="black" points="7697,-873.03 7701,-879.03 7697,-885.03 7693,-879.03 7697,-873.03"/>
</g>
<!-- 44 -->
<g id="node45" class="node"><title>44</title>
<polygon fill="lightblue" stroke="black" points="7641.96,-100.3 7641.96,-141.9 7752.04,-141.9 7752.04,-100.3 7641.96,-100.3"/>
<text text-anchor="middle" x="7697" y="-125.3" font-family="Times,serif" font-size="14.00">«FUNCTION»</text>
<text text-anchor="middle" x="7697" y="-108.5" font-family="Times,serif" font-size="14.00"> ()</text>
</g>
<!-- 43&#45;&gt;44 -->
<g id="edge31" class="edge"><title>43&#45;&gt;44</title>
<path fill="none" stroke="black" d="M7697,-453.054C7697,-379.807 7697,-201.861 7697,-142.072"/>
<polygon fill="black" stroke="black" points="7697,-453.066 7701,-459.067 7697,-465.066 7693,-459.066 7697,-453.066"/>
</g>
<!-- 45 -->
<g id="node46" class="node"><title>45</title>
<polygon fill="lightblue" stroke="black" points="7421.96,-885.1 7421.96,-926.7 7532.04,-926.7 7532.04,-885.1 7421.96,-885.1"/>
<text text-anchor="middle" x="7477" y="-910.1" font-family="Times,serif" font-size="14.00">«FUNCTION»</text>
<text text-anchor="middle" x="7477" y="-893.3" font-family="Times,serif" font-size="14.00"> ()</text>
</g>
</g>
</svg>
